<svg xmlns="http://www.w3.org/2000/svg" viewBox="0 0 500 500"><defs><style>.cls-1,.cls-2{fill:#0e0d0e;}.cls-2{opacity:0.45;}</style></defs><g id="Layer_3" data-name="Layer 3"><path class="cls-1" d="M97.35,243.88H113c7.34,0,8,0,9.37,0,10.35.23,14,2.11,21.89,3,9.32,1.09,8-1.09,26.57-1.52,5.28-.13,4.73.07,21.88,0,11.37-.05,14.4-.14,18.76-1.52a37.93,37.93,0,0,0,14.07-7.59c5.39-4.73,7.6-9.75,9.38-9.11,1.52.54,1.55,4.84,1.56,6.07,0,3.37-1,4.64,0,6.07a4.28,4.28,0,0,0,4.69,1.52c1.53-.62,1.22-2.22,3.12-4.55,1.23-1.5,3.59-3.57,4.69-3s.58,2.47,0,9.11c-.42,4.88-.62,7.35-.34,9.09.31,1.93.65,2.13,3.3,8.66,3,7.31,3.19,8.68,3.3,9.58.31,2.65.62,5.94-1.57,9.11a10.49,10.49,0,0,1-7.81,4.56c-2,.08-2.49-.74-7.82-3-4.39-1.9-6.64-2.85-9.38-3a12.65,12.65,0,0,0-7.81,1.52c-2.7,1.67-3.77,4.12-4.69,6.07a15.79,15.79,0,0,0-1.56,9.11c.22,1.32,1,4.77,7.81,10.63,7.78,6.73,10,5,15.63,10.63,5.16,5.14,6.65,9.92,7.82,13.67,1.47,4.74.89,6.56,0,7.59a5.28,5.28,0,0,1-4.69,1.52c-1.53-.27-2.54-1.21-6.25-6.08-3.59-4.7-3.51-4.93-4.69-6.07-2.12-2-4.07-2.89-7.82-4.56-5.19-2.3-6.76-2.09-12.5-4.55-2.68-1.15-4.57-2.15-6.26-3a87.24,87.24,0,0,1-12.5-7.59c-2.89-2.16-3.23-2.78-4.69-3-3.47-.6-7.26,1.9-9.38,4.56-3,3.82-3.07,8.54-3.12,16.7,0,3.57.34,4.38,0,7.59-.27,2.52-.66,3.48,0,4.56,1.45,2.4,5.49,1.27,6.25,3s-1.82,4.67-4.69,6.08A12.38,12.38,0,0,1,163,344.09c-3.39-2.7-3.82-6.86-4.68-15.18-.95-9.13-1.5-14.37,0-21.26.52-2.43,1.17-4.45,0-6.07-1.37-1.89-5.1-1.79-12.51-1.52-17.56.64-18.26.75-20.32,0-2.82-1-5.83-2.84-7.81-1.52-1,.63-1,1.51-1.57,3-1.69,4.4-5.26,7.15-7.81,9.11-3.84,2.94-5.38,2.49-6.26,4.55-1.23,2.91.77,6.26,1.57,7.59,2.52,4.23,6.7,6.31,9.38,7.59,5.45,2.64,8.32,2.16,9.37,4.56.91,2-.21,4.64-1.56,6.07-3.43,3.67-10.11,1.76-10.94,1.52-2.89-.83-3.14-1.83-9.38-6.07-5.65-3.84-6.07-3.44-9.38-6.08-4.57-3.64-7.25-5.77-7.81-9.11s1.57-4.17,3.12-10.62c.44-1.8,2.28-9.43,0-10.63-1.77-.94-4.19,3-10.94,6.07-4.62,2.12-5.43,1.17-10.94,3a48.32,48.32,0,0,0-15.63,9.11c-5.44,4.42-9.69,7.87-9.38,12.14.15,2.07,1.25,2.7,1.56,6.08.2,2.14.56,6-1.56,7.59-2.6,2-8,0-10.94-3a12.37,12.37,0,0,1-3.13-9.11c.2-4.66,2.73-7.77,4.69-10.63,6-8.75,3.19-10,9.38-21.25,4.88-8.9,5.94-6.86,14.07-19.74,4.83-7.66,2.94-6,9.38-16.7,5-8.38,6.71-10.29,6.25-13.67s-2.63-4.9-9.38-12.14c-4.18-4.49-7.4-8.26-9.38-10.63A26.68,26.68,0,0,1,44.2,215c-.79-3.8-.49-7,0-12.15a37,37,0,0,1,1.56-9.11A30.9,30.9,0,0,1,52,183.15,32.77,32.77,0,0,1,66.08,174a14.74,14.74,0,0,1,12.51-3,4.68,4.68,0,0,1,1.56,3c.12,2.93-3.75,4.34-9.38,9.11a40.1,40.1,0,0,0-9.38,10.62,25.79,25.79,0,0,0-3.12,7.6,22.75,22.75,0,0,0,0,10.62c1.27,5,4.51,8.45,10.94,15.19a70.6,70.6,0,0,0,6.25,6.07A53.65,53.65,0,0,0,97.35,243.88Z"/><path class="cls-2" d="M290.39,243.86H306c7.35,0,8,0,9.38,0,10.34.24,14,2.11,21.88,3,9.32,1.09,8-1.08,26.57-1.52,5.29-.12,4.73.07,21.89,0,11.37,0,14.39-.14,18.75-1.52a37.93,37.93,0,0,0,14.07-7.59c5.39-4.73,7.61-9.75,9.38-9.11,1.52.55,1.55,4.84,1.56,6.07,0,3.38-1,4.64,0,6.08a4.3,4.3,0,0,0,4.69,1.52c1.53-.63,1.22-2.22,3.13-4.56,1.22-1.5,3.58-3.57,4.69-3s.57,2.47,0,9.11c-.42,4.88-.63,7.36-.35,9.1.31,1.92.65,2.12,3.3,8.65,3,7.32,3.19,8.68,3.3,9.58.31,2.65.62,5.94-1.56,9.11a10.48,10.48,0,0,1-7.82,4.56c-2,.09-2.49-.74-7.81-3-4.39-1.89-6.65-2.85-9.38-3a12.66,12.66,0,0,0-7.82,1.51c-2.69,1.67-3.77,4.12-4.69,6.08a15.84,15.84,0,0,0-1.56,9.11c.22,1.31,1,4.76,7.81,10.63,7.79,6.72,10,5,15.64,10.62,5.16,5.14,6.64,9.92,7.81,13.67,1.48,4.75.9,6.56,0,7.59a5.25,5.25,0,0,1-4.69,1.52c-1.53-.26-2.53-1.2-6.25-6.07-3.59-4.71-3.5-4.94-4.69-6.08-2.11-2-4.07-2.89-7.82-4.55-5.19-2.31-6.76-2.1-12.5-4.56-2.68-1.14-4.57-2.14-6.25-3a87.43,87.43,0,0,1-12.51-7.6c-2.89-2.16-3.23-2.78-4.69-3-3.47-.61-7.26,1.9-9.37,4.55-3.05,3.83-3.08,8.55-3.13,16.7,0,3.57.34,4.38,0,7.6-.27,2.52-.65,3.47,0,4.55,1.45,2.41,5.49,1.28,6.25,3s-1.82,4.67-4.69,6.07a12.36,12.36,0,0,1-12.5-1.52c-3.39-2.69-3.83-6.86-4.69-15.18-1-9.13-1.49-14.36,0-21.26.53-2.43,1.17-4.45,0-6.07-1.36-1.89-5.1-1.79-12.51-1.52-17.56.64-18.26.76-20.32,0-2.81-1-5.83-2.84-7.81-1.52-.94.63-1,1.51-1.56,3-1.69,4.41-5.27,7.15-7.82,9.11-3.83,2.94-5.37,2.49-6.25,4.55-1.24,2.91.77,6.27,1.56,7.6,2.52,4.22,6.71,6.3,9.38,7.59,5.46,2.63,8.32,2.15,9.38,4.55.9,2.06-.22,4.64-1.57,6.08-3.43,3.67-10.11,1.75-10.94,1.51-2.89-.83-3.13-1.83-9.38-6.07-5.65-3.84-6.06-3.44-9.37-6.07-4.58-3.65-7.26-5.78-7.82-9.11s1.57-4.18,3.13-10.63c.43-1.8,2.27-9.43,0-10.63-1.77-.93-4.19,3-10.94,6.07-4.63,2.12-5.44,1.17-10.95,3a48.5,48.5,0,0,0-15.63,9.11c-5.44,4.42-9.69,7.87-9.38,12.15.16,2.07,1.25,2.7,1.57,6.07.2,2.14.55,6-1.57,7.59-2.59,2-8,0-10.94-3a12.37,12.37,0,0,1-3.12-9.11c.2-4.67,2.72-7.77,4.69-10.63,6-8.76,3.19-10,9.37-21.26,4.89-8.89,5.95-6.85,14.07-19.74,4.83-7.66,2.95-6,9.38-16.7,5-8.38,6.71-10.28,6.25-13.66s-2.63-4.91-9.38-12.15c-4.18-4.49-7.39-8.25-9.37-10.63A26.68,26.68,0,0,1,237.24,215c-.79-3.79-.48-7,0-12.14a37.38,37.38,0,0,1,1.57-9.11,30.56,30.56,0,0,1,6.25-10.63A32.73,32.73,0,0,1,259.13,174a14.65,14.65,0,0,1,6.25-3,14.83,14.83,0,0,1,6.25,0,4.68,4.68,0,0,1,1.56,3c.12,2.94-3.74,4.34-9.37,9.11a40.16,40.16,0,0,0-9.38,10.63,25.55,25.55,0,0,0-3.13,7.59,22.94,22.94,0,0,0,0,10.63c1.27,5,4.51,8.44,10.94,15.18a69.21,69.21,0,0,0,6.26,6.07A53.39,53.39,0,0,0,290.39,243.86Z"/></g></svg>