<svg xmlns="http://www.w3.org/2000/svg" viewBox="0 0 220 220"><defs><style>.cls-1{fill:#f2d9c4;}</style></defs><g id="Layer_9" data-name="Layer 9"><path class="cls-1" d="M37.35,69.16C55.1,71.8,69.74,74.1,80,75.73,118.54,81.87,137.57,86,186,94.19c13.59,2.31,24.53,4.11,30.91,5.15l-14.7,51.92Q145.1,143.76,85.76,134,57,129.23,28.87,124.12L3,94Z"/><path d="M64.72,112.42a12.77,12.77,0,0,1-4.25-1.55,16.52,16.52,0,0,1-3.76-3,18.61,18.61,0,0,1-2.89-4,15.21,15.21,0,0,1-1.62-4.5,10.62,10.62,0,0,1,0-4.24A7.25,7.25,0,0,1,53.72,92a6.08,6.08,0,0,1,2.84-1.84A8.42,8.42,0,0,1,60.47,90a12.74,12.74,0,0,1,4.23,1.52,16.55,16.55,0,0,1,3.75,2.93,18,18,0,0,1,2.88,4A15.19,15.19,0,0,1,73,102.93a10.57,10.57,0,0,1,0,4.23,7.18,7.18,0,0,1-1.54,3.21,6,6,0,0,1-2.83,1.85A8.29,8.29,0,0,1,64.72,112.42Zm-.59-2.84a5.64,5.64,0,0,0,3.68-.44,4.41,4.41,0,0,0,2.09-2.54,8.26,8.26,0,0,0,.15-4.19A12.76,12.76,0,0,0,68.88,99a13.28,13.28,0,0,0-2-2.91,11.42,11.42,0,0,0-2.7-2.13A9.47,9.47,0,0,0,61,92.82a5.64,5.64,0,0,0-3.66.43,4.36,4.36,0,0,0-2.08,2.51,8.06,8.06,0,0,0-.16,4.17,12.86,12.86,0,0,0,3.22,6.39A11.79,11.79,0,0,0,61,108.46,9.21,9.21,0,0,0,64.13,109.58Z"/><path d="M78.8,114.45,74.74,92.67l2,.32L88.22,109.6l-1.33-.22,5.87-13.72,1.95.33,4.07,21.78L96,117.3l-3.1-16.6.66.29L89,111.82l-2-.33L77.9,98.39l.59-.08,3.1,16.6Z"/><path d="M109.76,119.59l-4.07-21.78,2,.32,11.53,16.6-1.33-.22,5.87-13.71,2,.32,4.07,21.78-2.78-.46-3.1-16.6.65.29L119.91,117l-2-.33-9.07-13.09.58-.08,3.1,16.6Z"/><path d="M134.59,123.71l-4.07-21.78,2.79.46,4.06,21.78Z"/><path d="M151.55,126.83a12.56,12.56,0,0,1-4.17-1.53,16.65,16.65,0,0,1-3.74-3,18.34,18.34,0,0,1-2.87-3.94,15.19,15.19,0,0,1-1.62-4.53,10.62,10.62,0,0,1,0-4.24,7.12,7.12,0,0,1,1.56-3.2,6,6,0,0,1,2.88-1.83,9,9,0,0,1,4-.16,13.62,13.62,0,0,1,4.72,1.76,15.44,15.44,0,0,1,4,3.46l-1.54,1.72a10.72,10.72,0,0,0-3-2.73,10.13,10.13,0,0,0-3.64-1.38,6,6,0,0,0-3.78.4,4.33,4.33,0,0,0-2.15,2.51,8.18,8.18,0,0,0-.15,4.17,12.67,12.67,0,0,0,5,7.91,9.17,9.17,0,0,0,4,1.69,6.46,6.46,0,0,0,3.61-.25,3.46,3.46,0,0,0,1.94-2.19,8.35,8.35,0,0,0,.09-4l1.93,1.6-8.88-1.48-.51-2.73,10.07,1.67.08.44a12.62,12.62,0,0,1-.07,6.15,5.19,5.19,0,0,1-2.78,3.26A8.33,8.33,0,0,1,151.55,126.83Z"/></g></svg>