<svg xmlns="http://www.w3.org/2000/svg" viewBox="0 0 500 500"><defs><style>.cls-1{fill:#f2d9c4;}</style></defs><g id="Layer_9" data-name="Layer 9"><path class="cls-1" d="M323.33,295.94c-17.18.25-31.38.36-41.32.41-37.37.2-56-.65-103-.86-13.19-.06-23.82-.06-30-.05l5.91-48.39q55.15-1.71,112.74-1.73,27.93,0,55.28.44L352,268.82Z"/><path d="M173.14,262.69l0-2.66,19.6.09,0,2.66Zm8.06,18.87.11-20.87h3.29l-.11,20.87Z"/><path d="M196.53,281.62l.11-21.49,3.26,0-.11,21.49Zm2.22,0V279l13.81.06,0,2.66Zm.05-9.69v-2.57l12.66.06V272Zm0-9.13,0-2.67,13.63.06v2.66Z"/><path d="M217,281.71l.11-21.49h2.29l10.12,15H228l10.28-14.91h2.28l-.11,21.49h-3.26l.09-16.38.72.19-8.07,11.76h-2.32l-7.95-11.83.73-.19-.09,16.38Z"/><path d="M244.29,281.83l10-21.45h2.36l9.71,21.54-3.54,0-8-18.21H256l-8.24,18.15ZM249,277v-2.54l12.66.05V277Z"/><path d="M285,282.32a9.3,9.3,0,0,1-4.94-1.39,9.68,9.68,0,0,1-3.53-3.87,12.37,12.37,0,0,1-1.29-5.87,12.5,12.5,0,0,1,1.33-5.85,9.6,9.6,0,0,1,3.54-3.81,9.69,9.69,0,0,1,9.85.05,9.45,9.45,0,0,1,3.5,3.84,13.93,13.93,0,0,1-.06,11.75,9.52,9.52,0,0,1-3.52,3.82A9.27,9.27,0,0,1,285,282.32Zm-.06-2.76a5.89,5.89,0,0,0,3.35-.93,6.29,6.29,0,0,0,2.29-2.79,11.24,11.24,0,0,0,.86-4.58,11.08,11.08,0,0,0-.81-4.56,6.15,6.15,0,0,0-2.28-2.79,6.08,6.08,0,0,0-9,2.73,11.32,11.32,0,0,0-.84,4.56,11.51,11.51,0,0,0,.8,4.59,6.15,6.15,0,0,0,2.25,2.81A6,6,0,0,0,285,279.56Z"/><path d="M297.52,276.46v-1.8l1.39-.8,17.07.08,0,2.6Zm0-1.8,8.85-14.05,3.67,0-9,14.05Zm11.72,7.45.07-14.18h3.23l-.08,14.19Z"/></g></svg>